<?xml version="1.0" encoding="UTF-8" ?>
<!DOCTYPE svg PUBLIC "-//W3C//DTD SVG 1.1//EN" "http://www.w3.org/Graphics/SVG/1.1/DTD/svg11.dtd">
<svg width="436pt" height="436pt" viewBox="0 0 436 436" version="1.1" xmlns="http://www.w3.org/2000/svg">
<circle cx="218" cy="207" r="180" stroke="black" stroke-width="8" fill="white"/>
<path fill="#42a7e5" stroke="#42a7e5" stroke-width="0.09375" opacity="1.00" d=" M 205.8 91.4 C 218.6 90.3 231.3 91.7 244.1 92.3 C 261.2 93.9 278.0 97.5 294.4 102.6 C 311.2 108.2 327.0 118.2 337.0 133.0 C 342.7 142.6 342.6 155.8 335.9 164.9 C 331.4 170.5 326.3 175.5 321.1 180.4 C 305.8 171.4 287.7 166.2 269.9 169.0 C 258.5 169.9 247.4 174.4 238.0 180.9 C 230.0 186.3 223.2 193.3 216.8 200.5 C 209.5 193.7 202.7 186.2 194.4 180.6 C 186.5 175.2 177.5 171.2 168.0 169.7 C 161.0 168.9 153.9 167.5 146.8 168.9 C 134.7 169.5 123.1 174.3 113.0 180.7 C 106.6 176.6 102.6 170.0 97.4 164.6 C 93.3 160.1 89.4 154.4 90.2 148.0 C 91.2 139.5 94.8 131.1 101.1 125.1 C 105.5 120.8 110.4 116.9 115.7 113.8 C 136.3 101.7 160.0 96.4 183.4 93.1 C 190.8 91.8 198.4 92.1 205.8 91.4 M 192.8 99.0 C 185.8 100.0 178.8 101.4 171.8 102.7 C 150.5 105.9 130.0 114.1 112.0 126.0 C 106.7 129.9 100.0 133.4 98.3 140.2 C 97.0 147.0 96.8 154.5 100.0 160.9 C 103.2 166.7 107.7 172.0 113.3 175.5 C 119.0 173.4 124.1 169.6 130.0 167.9 C 142.1 164.0 155.1 162.9 167.7 164.8 C 183.5 168.3 198.7 176.2 209.5 188.5 C 211.8 190.5 213.6 193.8 216.8 194.3 C 219.2 192.6 221.1 190.3 223.1 188.1 C 227.6 183.2 232.8 179.1 238.3 175.4 C 244.2 171.5 250.9 169.1 257.6 166.7 C 266.0 163.6 275.2 163.7 284.0 164.2 C 293.8 165.3 303.6 167.2 312.5 171.7 C 315.2 172.8 317.9 174.7 320.9 174.4 C 324.1 173.4 326.2 170.6 328.2 168.1 C 332.1 162.8 335.9 156.9 336.1 150.1 C 336.5 144.6 335.5 138.6 331.3 134.7 C 313.9 119.4 292.0 110.2 269.7 104.5 C 257.9 102.4 246.1 99.6 234.1 98.5 C 220.4 98.1 206.5 97.6 192.8 99.0 Z" />
<path fill="#f7c432" stroke="#f7c432" stroke-width="0.09375" opacity="1.00" d=" M 192.8 99.0 C 206.5 97.6 220.4 98.1 234.1 98.5 C 246.1 99.6 257.9 102.4 269.7 104.5 C 292.0 110.2 313.9 119.4 331.3 134.7 C 335.5 138.6 336.5 144.6 336.1 150.1 C 335.9 156.9 332.1 162.8 328.2 168.1 C 326.2 170.6 324.1 173.4 320.9 174.4 C 317.9 174.7 315.2 172.8 312.5 171.7 C 303.6 167.2 293.8 165.3 284.0 164.2 C 275.2 163.7 266.0 163.6 257.6 166.7 C 250.9 169.1 244.2 171.5 238.3 175.4 C 232.8 179.1 227.6 183.2 223.1 188.1 C 221.1 190.3 219.2 192.6 216.8 194.3 C 213.6 193.8 211.8 190.5 209.5 188.5 C 198.7 176.2 183.5 168.3 167.7 164.8 C 155.1 162.9 142.1 164.0 130.0 167.9 C 124.1 169.6 119.0 173.4 113.3 175.5 C 107.7 172.0 103.2 166.7 100.0 160.9 C 96.8 154.5 97.0 147.0 98.3 140.2 C 100.0 133.4 106.7 129.9 112.0 126.0 C 130.0 114.1 150.5 105.9 171.8 102.7 C 178.8 101.4 185.8 100.0 192.8 99.0 M 210.4 116.6 C 206.4 117.6 202.6 119.7 199.7 122.7 C 191.4 131.0 191.1 146.2 199.5 154.5 C 204.4 159.6 211.8 162.3 218.8 161.5 C 225.5 160.4 232.0 156.5 235.5 150.5 C 238.7 145.0 239.1 138.3 237.7 132.2 C 234.6 120.9 221.8 113.5 210.4 116.6 Z" />
<path fill="#42a7e5" stroke="#42a7e5" stroke-width="0.09375" opacity="1.00" d=" M 200.4 128.4 C 204.5 122.8 211.7 119.5 218.7 120.5 C 226.0 121.7 232.5 127.1 234.8 134.2 C 236.1 138.0 235.5 142.2 235.1 146.1 C 234.6 144.8 234.1 143.5 233.6 142.1 C 230.1 142.1 226.6 142.2 223.1 142.1 C 220.7 139.8 218.7 136.2 215.2 135.7 C 212.8 137.4 210.9 139.8 208.9 141.9 C 204.6 141.7 200.2 142.1 196.1 143.5 C 196.2 138.2 196.8 132.6 200.4 128.4 Z" />
<path fill="#92dd3c" stroke="#92dd3c" stroke-width="0.09375" opacity="1.00" d=" M 210.6 147.3 C 212.1 144.1 214.0 141.1 216.7 139.0 C 218.3 141.7 219.7 144.5 221.0 147.4 C 224.2 146.5 227.5 145.8 230.9 145.2 C 230.5 149.2 230.3 154.3 226.0 156.1 C 223.4 158.1 220.3 156.6 217.6 156.0 C 213.9 154.6 210.1 158.6 206.6 156.5 C 202.0 154.7 200.9 149.6 200.2 145.3 C 203.7 145.6 207.2 146.2 210.6 147.3 Z" />
<path fill="#42a7e5" stroke="#42a7e5" stroke-width="0.09375" opacity="1.00" d=" M 54.4 170.6 C 60.8 165.8 69.2 162.6 77.2 164.6 C 87.9 167.8 95.9 176.5 100.8 186.2 C 105.3 195.1 109.2 204.4 114.0 213.2 C 131.5 203.8 148.6 193.6 166.0 184.0 C 171.8 180.5 179.7 181.8 184.4 186.7 C 188.3 190.6 189.3 196.4 189.4 201.8 C 194.5 203.8 200.1 206.4 202.1 211.9 C 204.2 216.0 203.2 220.7 202.2 224.9 C 206.5 227.3 210.8 230.6 212.3 235.6 C 214.8 240.2 212.6 245.2 211.3 249.7 C 213.2 250.9 215.1 252.1 217.2 252.9 C 219.9 252.3 222.1 250.4 224.6 249.1 C 223.9 246.0 222.8 243.1 222.5 239.9 C 223.1 233.2 227.6 227.1 234.0 224.7 C 232.7 219.5 232.7 213.5 235.8 208.9 C 238.3 204.6 243.3 203.2 247.7 201.6 C 247.8 198.6 247.7 195.4 248.6 192.5 C 251.3 185.5 259.3 180.8 266.7 182.4 C 272.2 183.9 276.9 187.3 281.7 190.2 C 291.9 196.1 302.0 202.1 312.1 208.0 C 315.5 210.1 318.9 212.1 322.8 213.4 C 327.8 204.0 332.1 194.4 337.0 185.0 C 341.5 177.4 347.8 170.4 356.1 167.1 C 365.1 163.6 375.8 166.0 382.6 172.7 C 384.7 174.4 382.8 177.0 381.9 178.9 C 377.4 186.8 372.7 194.5 368.2 202.2 C 365.9 206.0 364.6 210.2 363.5 214.4 C 361.3 221.5 359.7 229.0 360.7 236.4 C 361.3 241.1 361.9 246.1 364.8 250.1 C 365.9 252.3 368.3 254.3 367.3 256.9 C 365.8 258.9 362.6 259.1 361.0 257.1 C 355.9 252.0 354.1 244.7 353.1 237.7 C 351.7 229.1 353.6 220.4 356.0 212.2 C 357.2 208.3 357.9 204.2 359.7 200.6 C 364.4 192.1 370.0 184.1 374.2 175.4 C 368.6 173.1 361.8 172.0 356.3 175.3 C 347.6 180.4 342.7 189.6 338.4 198.4 C 334.4 206.7 330.2 214.9 326.1 223.2 C 323.3 228.5 323.2 234.6 322.1 240.4 C 320.1 240.3 318.0 240.2 316.0 240.1 C 314.5 233.5 316.9 227.1 318.8 220.9 C 315.5 218.9 312.2 217.0 308.9 215.1 C 307.9 218.8 307.1 222.6 304.5 225.6 C 302.3 228.2 299.2 229.7 296.1 231.3 C 296.3 236.0 297.1 241.2 294.3 245.3 C 291.8 249.1 287.6 251.1 283.5 252.8 C 283.7 256.8 283.8 261.1 281.8 264.8 C 279.9 269.1 275.5 271.5 271.4 273.3 C 271.8 277.2 272.4 281.3 270.8 285.0 C 269.3 288.2 266.6 290.7 264.6 293.6 C 278.2 301.7 293.2 308.0 309.0 310.0 C 315.8 311.2 323.1 312.2 328.8 316.3 C 330.4 317.5 329.9 319.7 329.4 321.3 C 326.3 323.6 322.7 321.3 319.6 320.3 C 314.5 318.2 308.9 317.8 303.6 316.7 C 290.3 314.4 277.8 309.2 265.8 303.1 C 253.0 295.7 240.2 288.2 227.3 280.7 C 224.2 278.9 221.3 276.6 218.0 275.3 C 203.4 283.9 188.5 292.3 173.6 300.6 C 161.3 307.2 148.3 312.8 134.6 315.5 C 129.4 316.4 124.2 317.2 119.0 318.2 C 115.3 318.9 112.0 321.1 108.2 321.7 C 106.0 321.2 105.0 318.6 105.4 316.6 C 107.3 314.5 109.9 313.3 112.4 312.3 C 121.8 309.0 132.0 309.3 141.4 306.3 C 151.8 303.1 161.8 298.7 171.3 293.5 C 169.1 290.7 166.4 288.2 164.9 284.9 C 163.5 281.2 164.1 277.1 164.2 273.2 C 161.1 271.8 157.7 270.3 155.7 267.3 C 152.6 263.0 152.2 257.6 152.5 252.6 C 148.3 250.7 143.6 248.7 141.6 244.3 C 139.3 240.3 140.1 235.6 139.8 231.3 C 137.7 228.9 134.3 228.2 132.3 225.7 C 129.5 222.7 128.5 218.7 127.6 214.8 C 124.2 216.6 120.1 217.8 117.8 221.1 C 119.2 227.1 121.8 233.3 119.9 239.6 C 118.0 239.9 116.0 239.9 114.1 239.8 C 112.8 234.1 112.8 228.1 110.3 222.7 C 105.6 211.7 100.0 201.0 94.9 190.1 C 90.7 182.4 84.8 174.4 75.8 172.3 C 71.5 171.1 67.2 172.5 63.2 174.1 C 68.2 185.8 77.3 195.6 79.9 208.2 C 81.3 214.4 83.8 220.5 83.7 226.9 C 84.0 234.9 82.5 243.0 79.2 250.2 C 77.8 253.5 75.1 255.9 72.3 258.0 C 70.8 257.0 69.4 256.1 67.9 255.1 C 69.8 250.8 72.9 247.0 74.3 242.4 C 76.1 236.8 76.3 230.8 75.9 224.9 C 75.1 219.2 73.2 213.7 71.8 208.1 C 70.1 201.3 65.8 195.6 62.5 189.6 C 60.2 185.2 57.5 181.1 55.2 176.8 C 54.1 175.0 53.6 172.7 54.4 170.6 M 168.6 190.6 C 160.4 195.0 152.5 200.0 144.3 204.3 C 141.6 205.9 138.7 207.3 136.7 209.8 C 133.5 214.4 136.5 221.9 142.2 222.6 C 146.2 223.3 149.7 220.8 153.0 219.0 C 160.8 214.5 168.8 210.1 176.6 205.6 C 180.8 203.6 183.0 197.7 180.3 193.7 C 178.2 189.4 172.5 188.7 168.6 190.6 M 259.6 190.5 C 253.7 193.3 254.0 202.5 259.4 205.5 C 267.7 210.7 276.3 215.3 284.6 220.5 C 288.3 222.5 293.2 225.1 297.0 222.1 C 302.0 219.3 302.3 210.6 297.1 207.9 C 288.4 202.5 279.3 197.6 270.6 192.2 C 267.4 190.2 263.2 188.6 259.6 190.5 M 246.5 209.6 C 242.4 211.0 239.4 215.8 241.2 220.0 C 241.7 222.7 243.9 224.6 246.2 225.9 C 255.6 231.4 265.1 236.8 274.5 242.5 C 277.4 244.4 281.3 245.3 284.5 243.6 C 290.4 241.3 290.2 231.9 285.0 229.0 C 276.1 223.4 266.9 218.6 258.0 213.0 C 254.6 210.9 250.6 208.7 246.5 209.6 M 183.6 210.6 C 172.8 216.3 162.3 222.6 151.6 228.7 C 146.3 231.0 145.7 239.2 150.3 242.6 C 153.0 244.9 157.1 244.6 160.1 243.1 C 170.0 237.7 179.7 231.9 189.6 226.5 C 192.2 225.1 194.4 223.1 195.2 220.2 C 196.8 216.6 194.4 212.6 191.5 210.5 C 189.0 209.4 186.0 209.4 183.6 210.6 M 193.7 232.8 C 183.7 238.4 173.7 244.1 163.7 249.8 C 158.7 252.4 158.1 260.9 163.3 263.7 C 166.6 265.9 171.0 265.1 174.2 263.2 C 183.1 258.0 192.1 253.1 201.0 247.9 C 204.3 246.2 206.5 242.2 205.7 238.5 C 203.8 233.9 198.5 230.1 193.7 232.8 M 235.5 232.4 C 232.1 233.7 230.1 237.4 230.3 240.9 C 230.7 244.4 233.5 247.0 236.3 248.7 C 243.4 252.9 250.6 257.0 257.6 261.3 C 260.7 262.9 263.6 265.0 267.1 265.7 C 272.2 266.0 277.0 261.2 276.2 256.0 C 276.4 252.7 273.4 250.7 270.9 249.2 C 262.5 244.2 254.0 239.4 245.6 234.3 C 242.6 232.5 238.9 230.8 235.5 232.4 M 228.5 255.5 C 224.9 256.2 222.9 259.8 222.4 263.2 C 222.5 266.6 224.7 269.7 227.6 271.4 C 234.8 276.0 242.5 279.7 249.6 284.3 C 253.3 286.8 259.0 287.9 262.2 284.2 C 265.8 280.7 264.9 274.0 260.7 271.3 C 254.4 267.1 247.7 263.6 241.3 259.7 C 237.5 257.3 233.2 254.3 228.5 255.5 M 200.5 256.4 C 193.7 259.9 187.3 264.0 180.6 267.6 C 176.6 270.0 171.1 272.6 171.2 278.0 C 170.6 281.9 173.2 286.2 177.3 286.5 C 182.0 287.4 186.1 284.2 190.0 282.0 C 196.4 278.0 203.3 274.7 209.7 270.7 C 213.2 268.7 213.5 263.9 212.5 260.4 C 210.9 255.6 204.7 254.3 200.5 256.4 Z" />
</svg>