<?xml version="1.0" encoding="UTF-8" ?>
<!DOCTYPE svg PUBLIC "-//W3C//DTD SVG 1.1//EN" "http://www.w3.org/Graphics/SVG/1.1/DTD/svg11.dtd">
<svg width="300pt" height="300pt" viewBox="115 0 190 265" version="1.1" xmlns="http://www.w3.org/2000/svg">
<path fill="#92600b" stroke="#b2802b" stroke-width="0" opacity="1.00" d=" M 205.8 91.4 C 218.6 90.3 231.3 91.7 244.1 92.3 C 261.2 93.9 278.0 97.5 294.4 102.6 C 311.2 108.2 327.0 118.2 337.0 133.0 C 342.7 142.6 342.6 155.8 335.9 164.9 C 331.4 170.5 326.3 175.5 321.1 180.4 C 305.8 171.4 287.7 166.2 269.9 169.0 C 258.5 169.9 247.4 174.4 238.0 180.9 C 230.0 186.3 223.2 193.3 216.8 200.5 C 209.5 193.7 202.7 186.2 194.4 180.6 C 186.5 175.2 177.5 171.2 168.0 169.7 C 161.0 168.9 153.9 167.5 146.8 168.9 C 134.7 169.5 123.1 174.3 113.0 180.7 C 106.6 176.6 102.6 170.0 97.4 164.6 C 93.3 160.1 89.4 154.4 90.2 148.0 C 91.2 139.5 94.8 131.1 101.1 125.1 C 105.5 120.8 110.4 116.9 115.7 113.8 C 136.3 101.7 160.0 96.4 183.4 93.1 C 190.8 91.8 198.4 92.1 205.8 91.4 M 192.8 99.0 C 185.8 100.0 178.8 101.4 171.8 102.7 C 150.5 105.9 130.0 114.1 112.0 126.0 C 106.7 129.9 100.0 133.4 98.3 140.2 C 97.0 147.0 96.8 154.5 100.0 160.9 C 103.2 166.7 107.7 172.0 113.3 175.5 C 119.0 173.4 124.1 169.6 130.0 167.9 C 142.1 164.0 155.1 162.9 167.7 164.8 C 183.5 168.3 198.7 176.2 209.5 188.5 C 211.8 190.5 213.6 193.8 216.8 194.3 C 219.2 192.6 221.1 190.3 223.1 188.1 C 227.6 183.2 232.8 179.1 238.3 175.4 C 244.2 171.5 250.9 169.1 257.6 166.7 C 266.0 163.6 275.2 163.7 284.0 164.2 C 293.8 165.3 303.6 167.2 312.5 171.7 C 315.2 172.8 317.9 174.7 320.9 174.4 C 324.1 173.4 326.2 170.6 328.2 168.1 C 332.1 162.8 335.9 156.9 336.1 150.1 C 336.5 144.6 335.5 138.6 331.3 134.7 C 313.9 119.4 292.0 110.2 269.7 104.5 C 257.9 102.4 246.1 99.6 234.1 98.5 C 220.4 98.1 206.5 97.6 192.8 99.0 Z" />
<path fill="#d2a04b" stroke="#d2a04b" stroke-width="2" opacity="1.00" d=" M 192.8 99.0 C 206.5 97.6 220.4 98.1 234.1 98.5 C 246.1 99.6 257.9 102.4 269.7 104.5 C 292.0 110.2 313.9 119.4 331.3 134.7 C 335.5 138.6 336.5 144.6 336.1 150.1 C 335.9 156.9 332.1 162.8 328.2 168.1 C 326.2 170.6 324.1 173.4 320.9 174.4 C 317.9 174.7 315.2 172.8 312.5 171.7 C 303.6 167.2 293.8 165.3 284.0 164.2 C 275.2 163.7 266.0 163.6 257.6 166.7 C 250.9 169.1 244.2 171.5 238.3 175.4 C 232.8 179.1 227.6 183.2 223.1 188.1 C 221.1 190.3 219.2 192.6 216.8 194.3 C 213.6 193.8 211.8 190.5 209.5 188.5 C 198.7 176.2 183.5 168.3 167.7 164.8 C 155.1 162.9 142.1 164.0 130.0 167.9 C 124.1 169.6 119.0 173.4 113.3 175.5 C 107.7 172.0 103.2 166.7 100.0 160.9 C 96.8 154.5 97.0 147.0 98.3 140.2 C 100.0 133.4 106.7 129.9 112.0 126.0 C 130.0 114.1 150.5 105.9 171.8 102.7 C 178.8 101.4 185.8 100.0 192.8 99.0 M 210.4 116.6 C 206.4 117.6 202.6 119.7 199.7 122.7 C 191.4 131.0 191.1 146.2 199.5 154.5 C 204.4 159.6 211.8 162.3 218.8 161.5 C 225.5 160.4 232.0 156.5 235.5 150.5 C 238.7 145.0 239.1 138.3 237.7 132.2 C 234.6 120.9 221.8 113.5 210.4 116.6 Z" />
</svg>